<svg xmlns="http://www.w3.org/2000/svg" xmlns:xlink="http://www.w3.org/1999/xlink" width="1728" zoomAndPan="magnify" viewBox="0 0 1296 1727.999927" height="2304" preserveAspectRatio="xMidYMid meet" version="1.0"><defs><g/></defs><g fill="#ffffff" fill-opacity="1"><g transform="translate(-132.860747, 750.712558)"><g><path d="M 178.746094 -86.71875 C 175.5 -136.863281 136.566406 -161.933594 97.042969 -161.933594 C 54.863281 -161.933594 14.15625 -134.5 14.15625 -79.640625 C 14.15625 -24.777344 55.453125 2.949219 96.453125 2.949219 C 129.191406 2.949219 161.933594 -14.453125 174.027344 -49.257812 L 144.234375 -49.257812 C 134.796875 -31.265625 116.507812 -22.710938 96.746094 -22.710938 C 72.855469 -22.710938 43.0625 -41.589844 43.0625 -72.855469 L 178.15625 -72.855469 C 178.746094 -75.511719 179.039062 -78.460938 179.039062 -81.703125 C 179.039062 -83.472656 179.039062 -84.949219 178.746094 -86.71875 Z M 148.363281 -96.746094 L 44.242188 -96.746094 C 50.144531 -125.0625 73.738281 -136.566406 97.042969 -136.566406 C 120.050781 -136.566406 142.761719 -125.359375 148.363281 -96.746094 Z M 148.363281 -96.746094 "/></g></g></g><g fill="#ffffff" fill-opacity="1"><g transform="translate(61.796432, 750.712558)"><g><path d="M 187.890625 0 L 187.890625 -159.574219 L 158.984375 -159.574219 L 159.277344 -138.335938 C 145.121094 -157.507812 121.230469 -162.226562 101.464844 -162.226562 C 47.488281 -162.226562 16.222656 -123.589844 16.222656 -80.523438 C 16.222656 -36.574219 46.308594 2.65625 102.054688 2.65625 C 121.820312 2.359375 147.480469 -4.128906 158.984375 -21.53125 L 158.984375 0 Z M 158.984375 -79.933594 C 158.984375 -41.589844 128.011719 -23.007812 101.464844 -23.007812 C 66.070312 -23.007812 45.128906 -50.4375 45.128906 -80.523438 C 45.128906 -112.085938 66.367188 -136.863281 101.464844 -136.863281 C 128.601562 -136.863281 158.984375 -117.984375 158.984375 -79.933594 Z M 158.984375 -79.933594 "/></g></g></g><g fill="#ffffff" fill-opacity="1"><g transform="translate(268.840886, 750.712558)"><g><path d="M 22.121094 0 L 51.027344 0 L 51.027344 -206.472656 L 22.121094 -206.472656 Z M 22.121094 0 "/></g></g></g><g fill="#ffffff" fill-opacity="1"><g transform="translate(341.984771, 750.712558)"><g><path d="M 59.875 -159.574219 L 59.875 -194.96875 L 30.972656 -189.363281 L 30.972656 -159.574219 L 7.078125 -159.574219 L 7.078125 -136.566406 L 30.972656 -136.566406 L 30.972656 -46.898438 C 30.972656 -9.734375 51.324219 0.886719 82.589844 0.886719 C 86.71875 0.886719 91.144531 0.589844 95.863281 0.296875 L 95.863281 -23.890625 C 91.4375 -23.597656 87.308594 -23.300781 83.769531 -23.300781 C 69.316406 -23.300781 59.875 -27.726562 59.875 -46.605469 L 59.875 -136.566406 L 94.976562 -136.566406 L 94.976562 -159.574219 Z M 59.875 -159.574219 "/></g></g></g><g fill="#ffffff" fill-opacity="1"><g transform="translate(443.442464, 750.712558)"><g><path d="M 49.847656 -139.8125 L 49.847656 -206.472656 L 21.238281 -206.472656 L 21.238281 0 L 49.847656 0 L 49.847656 -86.71875 C 49.847656 -114.445312 66.367188 -136.273438 96.746094 -136.273438 C 131.550781 -136.273438 139.515625 -115.625 139.515625 -85.539062 L 139.515625 0 L 168.421875 0 L 168.421875 -85.832031 C 168.421875 -131.550781 147.480469 -161.933594 98.8125 -161.933594 C 78.753906 -161.933594 61.941406 -156.917969 49.847656 -139.8125 Z M 49.847656 -139.8125 "/></g></g></g><g fill="#ffffff" fill-opacity="1"><g transform="translate(-147.148106, 1162.137929)"><g><path d="M 139.8125 -20.941406 L 139.8125 0 L 167.242188 0 L 167.242188 -161.046875 L 138.335938 -161.046875 L 138.335938 -72.855469 C 138.335938 -44.832031 121.820312 -23.300781 91.4375 -23.300781 C 56.632812 -23.300781 48.964844 -43.949219 48.964844 -73.738281 L 48.964844 -161.046875 L 20.058594 -161.046875 L 20.058594 -73.738281 C 20.058594 -28.019531 41 2.359375 89.371094 2.359375 C 110.019531 2.359375 128.011719 -3.539062 139.8125 -20.941406 Z M 139.8125 -20.941406 "/></g></g></g><g fill="#ffffff" fill-opacity="1"><g transform="translate(42.790162, 1162.137929)"><g><path d="M 50.734375 -139.8125 L 50.734375 -159.277344 L 22.121094 -159.277344 L 22.121094 0 L 50.734375 0 L 50.734375 -86.421875 C 50.734375 -115.625 73.148438 -137.15625 99.992188 -137.15625 C 104.710938 -137.15625 109.726562 -136.566406 114.738281 -135.09375 L 114.738281 -160.457031 C 108.25 -161.933594 102.054688 -162.816406 95.863281 -162.816406 C 78.164062 -162.816406 62.238281 -155.738281 50.734375 -139.8125 Z M 50.734375 -139.8125 "/></g></g></g><g fill="#ffffff" fill-opacity="1"><g transform="translate(166.662963, 1162.137929)"><g><path d="M 187.890625 0 L 187.890625 -159.574219 L 158.984375 -159.574219 L 159.277344 -138.335938 C 145.121094 -157.507812 121.230469 -162.226562 101.464844 -162.226562 C 47.488281 -162.226562 16.222656 -123.589844 16.222656 -80.523438 C 16.222656 -36.574219 46.308594 2.65625 102.054688 2.65625 C 121.820312 2.359375 147.480469 -4.128906 158.984375 -21.53125 L 158.984375 0 Z M 158.984375 -79.933594 C 158.984375 -41.589844 128.011719 -23.007812 101.464844 -23.007812 C 66.070312 -23.007812 45.128906 -50.4375 45.128906 -80.523438 C 45.128906 -112.085938 66.367188 -136.863281 101.464844 -136.863281 C 128.601562 -136.863281 158.984375 -117.984375 158.984375 -79.933594 Z M 158.984375 -79.933594 "/></g></g></g><g fill="#ffffff" fill-opacity="1"><g transform="translate(373.70738, 1162.137929)"><g><path d="M 51.027344 -139.8125 L 51.027344 -159.574219 L 22.121094 -159.574219 L 22.121094 0 L 51.027344 0 L 51.027344 -86.71875 C 51.027344 -114.445312 67.546875 -136.273438 97.925781 -136.273438 C 132.730469 -136.273438 140.695312 -115.625 140.695312 -85.539062 L 140.695312 0 L 169.308594 0 L 169.308594 -85.832031 C 169.308594 -131.550781 148.660156 -161.933594 99.992188 -161.933594 C 79.933594 -161.933594 62.828125 -156.917969 51.027344 -139.8125 Z M 51.027344 -139.8125 "/></g></g></g><g fill="#ffffff" fill-opacity="1"><g transform="translate(564.825368, 1162.137929)"><g><path d="M 178.449219 -60.761719 L 148.660156 -60.761719 C 141.582031 -35.394531 120.34375 -23.007812 98.515625 -23.007812 C 71.085938 -23.007812 43.949219 -41.589844 43.949219 -79.933594 C 43.949219 -117.984375 71.378906 -136.566406 98.222656 -136.566406 C 120.050781 -136.566406 141.582031 -124.179688 148.660156 -98.8125 L 178.449219 -98.8125 C 170.488281 -141.285156 134.207031 -162.226562 97.925781 -162.226562 C 56.335938 -162.226562 15.042969 -135.09375 15.042969 -79.933594 C 15.042969 -25.070312 56.042969 2.359375 97.335938 2.359375 C 133.617188 2.359375 170.488281 -17.992188 178.449219 -60.761719 Z M 178.449219 -60.761719 "/></g></g></g><g fill="#ffffff" fill-opacity="1"><g transform="translate(758.007872, 1162.137929)"><g><path d="M 178.746094 -86.71875 C 175.5 -136.863281 136.566406 -161.933594 97.042969 -161.933594 C 54.863281 -161.933594 14.15625 -134.5 14.15625 -79.640625 C 14.15625 -24.777344 55.453125 2.949219 96.453125 2.949219 C 129.191406 2.949219 161.933594 -14.453125 174.027344 -49.257812 L 144.234375 -49.257812 C 134.796875 -31.265625 116.507812 -22.710938 96.746094 -22.710938 C 72.855469 -22.710938 43.0625 -41.589844 43.0625 -72.855469 L 178.15625 -72.855469 C 178.746094 -75.511719 179.039062 -78.460938 179.039062 -81.703125 C 179.039062 -83.472656 179.039062 -84.949219 178.746094 -86.71875 Z M 148.363281 -96.746094 L 44.242188 -96.746094 C 50.144531 -125.0625 73.738281 -136.566406 97.042969 -136.566406 C 120.050781 -136.566406 142.761719 -125.359375 148.363281 -96.746094 Z M 148.363281 -96.746094 "/></g></g></g></svg>