<svg xmlns="http://www.w3.org/2000/svg" xmlns:xlink="http://www.w3.org/1999/xlink" width="500" zoomAndPan="magnify" viewBox="0 0 375 374.999991" height="500" preserveAspectRatio="xMidYMid meet" version="1.0"><defs><clipPath id="f586681e3c"><path d="M 112.003906 31.390625 L 261.9375 31.390625 L 261.9375 110.035156 L 112.003906 110.035156 Z M 112.003906 31.390625 " clip-rule="nonzero"/></clipPath><clipPath id="636bf299b7"><path d="M 190 113.046875 L 258.570312 113.046875 L 258.570312 186 L 190 186 Z M 190 113.046875 " clip-rule="nonzero"/></clipPath><clipPath id="24efe6da3d"><path d="M 116.070312 113.046875 L 185 113.046875 L 185 186 L 116.070312 186 Z M 116.070312 113.046875 " clip-rule="nonzero"/></clipPath><clipPath id="d97600c983"><path d="M 150 123 L 224 123 L 224 200.796875 L 150 200.796875 Z M 150 123 " clip-rule="nonzero"/></clipPath></defs><g clip-path="url(#f586681e3c)"><path fill="#00c2cb" d="M 261.9375 97.691406 L 261.9375 110.035156 L 112.003906 110.035156 L 112.003906 97.691406 L 117.25 93.007812 L 145.292969 68.304688 L 145.292969 42.695312 L 162.226562 42.695312 L 162.226562 53.246094 L 186.972656 31.390625 L 256.695312 93.007812 L 261.9375 97.691406 " fill-opacity="1" fill-rule="nonzero"/></g><g clip-path="url(#636bf299b7)"><path fill="#545454" d="M 258.511719 176.613281 C 258.273438 170.214844 254.738281 164.40625 248.933594 160.117188 C 246.25 158.140625 243.085938 156.488281 239.535156 155.253906 C 244.730469 150.878906 248.035156 144.308594 248.035156 136.960938 C 248.035156 123.789062 237.414062 113.109375 224.3125 113.109375 C 211.210938 113.109375 200.589844 123.789062 200.589844 136.960938 C 200.589844 144.308594 203.894531 150.878906 209.089844 155.253906 C 205.539062 156.488281 202.375 158.140625 199.695312 160.117188 C 193.890625 164.402344 190.359375 170.214844 190.113281 176.613281 C 190.027344 178.855469 190.273438 180.75 190.792969 182.359375 C 199.667969 184.5625 211.421875 185.90625 224.3125 185.90625 C 237.238281 185.90625 249.015625 184.558594 257.894531 182.34375 C 258.371094 180.734375 258.59375 178.847656 258.511719 176.613281 " fill-opacity="1" fill-rule="nonzero"/></g><g clip-path="url(#24efe6da3d)"><path fill="#545454" d="M 184.566406 176.613281 C 184.332031 170.214844 180.796875 164.40625 174.988281 160.117188 C 172.308594 158.140625 169.140625 156.488281 165.589844 155.253906 C 170.785156 150.878906 174.089844 144.308594 174.089844 136.960938 C 174.089844 123.789062 163.46875 113.109375 150.367188 113.109375 C 137.265625 113.109375 126.644531 123.789062 126.644531 136.960938 C 126.644531 144.308594 129.953125 150.878906 135.148438 155.253906 C 131.59375 156.488281 128.433594 158.140625 125.75 160.117188 C 119.945312 164.402344 116.414062 170.214844 116.171875 176.613281 C 116.082031 178.855469 116.332031 180.75 116.851562 182.359375 C 125.722656 184.5625 137.476562 185.90625 150.367188 185.90625 C 163.292969 185.90625 175.070312 184.558594 183.953125 182.34375 C 184.429688 180.734375 184.648438 178.847656 184.566406 176.613281 " fill-opacity="1" fill-rule="nonzero"/></g><g clip-path="url(#d97600c983)"><path fill="#000000" d="M 223.695312 190.894531 C 223.445312 184.09375 219.6875 177.917969 213.511719 173.363281 C 210.664062 171.257812 207.296875 169.503906 203.523438 168.1875 C 209.042969 163.539062 212.558594 156.558594 212.558594 148.746094 C 212.558594 134.742188 201.269531 123.390625 187.339844 123.390625 C 173.410156 123.390625 162.121094 134.742188 162.121094 148.746094 C 162.121094 156.558594 165.636719 163.539062 171.160156 168.191406 C 167.382812 169.503906 164.019531 171.257812 161.171875 173.363281 C 155 177.917969 151.246094 184.09375 150.984375 190.894531 C 150.894531 193.28125 151.15625 195.292969 151.710938 197.003906 C 161.144531 199.347656 173.636719 200.773438 187.339844 200.773438 C 201.078125 200.773438 213.601562 199.339844 223.039062 196.988281 C 223.546875 195.273438 223.78125 193.269531 223.695312 190.894531 " fill-opacity="1" fill-rule="nonzero"/></g></svg>